<?xml version="1.0" ?><svg data-name="Layer 1" id="Layer_1" viewBox="0 0 512 512" xmlns="http://www.w3.org/2000/svg"><path d="M426.83,216.61a43.68,43.68,0,0,0-41.66,31H310.28a69,69,0,0,0-11.41-28l52.35-52.35a43.79,43.79,0,1,0-16.75-16.76l-52.26,52.26a68.86,68.86,0,0,0-29-12.22V116.82a43.77,43.77,0,1,0-23.7,0v73.75a69.36,69.36,0,0,0-29,12.18L148.21,150.5a43.22,43.22,0,0,0-7.09-52.23c-16.54-16.54-45.36-16.54-61.9,0a43.63,43.63,0,0,0,52.22,69L183.8,219.6a69.36,69.36,0,0,0-11.39,28H97.5a43.68,43.68,0,1,0,.55,23.7h74.32a69,69,0,0,0,12.21,29l-53.14,53.14a43.77,43.77,0,1,0,16.76,16.75L201.43,317a69.14,69.14,0,0,0,28.06,11.42v75.48a43.76,43.76,0,1,0,23.7,0V328.45a69,69,0,0,0,28-11.42l53.24,53.23a43.78,43.78,0,1,0,16.76-16.75l-53.15-53.15a69,69,0,0,0,12.21-29h74.32a43.7,43.7,0,1,0,42.22-54.73ZM287.74,259.49a46.4,46.4,0,0,1-46.41,46.42h0a46.42,46.42,0,0,1,0-92.84h0a46.4,46.4,0,0,1,46.4,46.41Z"/><path d="M488.09,97H437.15a11.85,11.85,0,1,0,0,23.7h50.94a11.85,11.85,0,1,0,0-23.7Z"/><path d="M461,137.71H437.15a11.85,11.85,0,1,0,0,23.7H461a11.85,11.85,0,1,0,0-23.7Z"/><path d="M308.42,46.05h50.95a11.85,11.85,0,1,0,0-23.7H308.42a11.85,11.85,0,0,0,0,23.7Z"/><path d="M308.42,86.73h23.87a11.85,11.85,0,0,0,0-23.7H308.42a11.85,11.85,0,0,0,0,23.7Z"/></svg>